<?xml version="1.0" encoding="utf-8"?>
<!-- Generator: Adobe Illustrator 16.0.0, SVG Export Plug-In . SVG Version: 6.00 Build 0)  -->
<!DOCTYPE svg PUBLIC "-//W3C//DTD SVG 1.1//EN" "http://www.w3.org/Graphics/SVG/1.1/DTD/svg11.dtd">
<svg version="1.1" id="pizza" xmlns="http://www.w3.org/2000/svg" xmlns:xlink="http://www.w3.org/1999/xlink" x="0px" y="0px"
	 width="2000px" height="1331px" viewBox="0 0 2000 1331" style="enable-background:new 0 0 2000 1331;" xml:space="preserve">
<image style="overflow:visible;" width="2000" height="1331" id="sliceOne" xlink:href="./public/styles/images/svg/3774CE7C.png"  transform="matrix(1 0 0 1 6 3)">
</image>
<image style="overflow:visible;" width="2000" height="1331" id="sliceTwo" xlink:href="3774CE7D.png"  transform="matrix(1 0 0 1 13 -10)">
</image>
<image style="overflow:visible;" width="2000" height="1331" id="sliceThree" xlink:href="./public/styles/images/svg/3774CE7B.png"  transform="matrix(1 0 0 1 6 -6)">
</image>
<image style="overflow:visible;" width="2000" height="1331" id="sliceFour" xlink:href="./public/styles/images/svg/3774CE84.png"  transform="matrix(1 0 0 1 16 -13)">
</image>
<image style="overflow:visible;" width="2000" height="1331" id="sliceFive" xlink:href="./public/styles/images/svg/3774CE87.png"  transform="matrix(1 0 0 1 9 -31)">
</image>
<image style="overflow:visible;" width="2000" height="1331" id="sliceSix" xlink:href="./public/styles/images/svg/3774CE85.png"  transform="matrix(1 0 0 1 16 -25)">
</image>
<image style="overflow:visible;" width="2000" height="1331" id="sliceSeven" xlink:href="./public/styles/images/svg/3774CE8B.png"  transform="matrix(1 0 0 1 22 -7)">
</image>
<image style="overflow:visible;" width="2000" height="1331" id="sliceEight" xlink:href="./public/styles/images/svg/3774CE8C.png"  transform="matrix(1 0 0 1 16 -3)">
</image>
</svg>
